<svg width="33" height="32" viewBox="0 0 33 32" fill="none" xmlns="http://www.w3.org/2000/svg">
<g clip-path="url(#clip0_13_238)">
<path d="M32.8894 16C32.8894 7.16344 25.726 0 16.8894 0C8.05284 0 0.889404 7.16344 0.889404 16C0.889404 23.9861 6.74037 30.6053 14.3894 31.8056V20.625H10.3269V16H14.3894V12.475C14.3894 8.465 16.7781 6.25 20.4328 6.25C22.1834 6.25 24.0144 6.5625 24.0144 6.5625V10.5H21.9968C20.0092 10.5 19.3894 11.7333 19.3894 12.9987V16H23.8269L23.1175 20.625H19.3894V31.8056C27.0384 30.6053 32.8894 23.9861 32.8894 16Z" fill="white"/>
<path d="M23.1175 20.625L23.8269 16H19.3894V12.9987C19.3894 11.7333 20.0092 10.5 21.9968 10.5H24.0144V6.5625C24.0144 6.5625 22.1834 6.25 20.4328 6.25C16.7781 6.25 14.3894 8.465 14.3894 12.475V16H10.3269V20.625H14.3894V31.8056C15.204 31.9334 16.0389 32 16.8894 32C17.7399 32 18.5748 31.9334 19.3894 31.8056V20.625H23.1175Z" fill="#1E3738"/>
</g>
<defs>
<clipPath id="clip0_13_238">
<rect width="32" height="32" fill="white" transform="translate(0.889404)"/>
</clipPath>
</defs>
</svg>
