<svg width="33" height="32" viewBox="0 0 33 32" fill="none" xmlns="http://www.w3.org/2000/svg">
<g clip-path="url(#clip0_13_243)">
<path d="M10.2629 0.1119C8.56047 0.19222 7.39791 0.4639 6.38159 0.86326C5.32975 1.27318 4.43823 1.82326 3.55119 2.7135C2.66415 3.60374 2.11791 4.4959 1.71087 5.54934C1.31695 6.5679 1.05007 7.73142 0.97487 9.43478C0.89967 11.1381 0.88303 11.6857 0.89135 16.0306C0.89967 20.3756 0.91887 20.9202 1.00143 22.6271C1.08271 24.3292 1.35343 25.4914 1.75279 26.5081C2.16335 27.5599 2.71279 28.4511 3.60335 29.3385C4.49391 30.2258 5.38543 30.7708 6.44143 31.1785C7.45903 31.5717 8.62287 31.8399 10.3259 31.9145C12.029 31.989 12.5771 32.0063 16.9208 31.998C21.2645 31.9897 21.8113 31.9705 23.5179 31.8895C25.2245 31.8085 26.3806 31.5359 27.3976 31.1385C28.4494 30.7269 29.3413 30.1785 30.228 29.2876C31.1147 28.3967 31.6606 27.5039 32.0673 26.4498C32.4616 25.4322 32.7294 24.2684 32.8033 22.5666C32.8779 20.8588 32.8955 20.3135 32.8872 15.9692C32.8789 11.6249 32.8593 11.0802 32.7784 9.37398C32.6974 7.66774 32.4264 6.50902 32.0273 5.49174C31.6161 4.4399 31.0673 3.54934 30.1771 2.66134C29.2869 1.77334 28.3934 1.22774 27.3397 0.82198C26.3214 0.42806 25.1582 0.15958 23.4552 0.0859802C21.7521 0.0123802 21.204 -0.00649982 16.8587 0.00182018C12.5134 0.0101402 11.9694 0.0287002 10.2629 0.1119ZM10.4497 29.0361C8.88975 28.9682 8.04271 28.709 7.47823 28.4921C6.73071 28.2041 6.19823 27.8559 5.63567 27.2988C5.07311 26.7417 4.72751 26.2073 4.43567 25.4613C4.21647 24.8969 3.95247 24.0508 3.87951 22.4908C3.80015 20.8047 3.78351 20.2985 3.77423 16.0268C3.76495 11.7551 3.78127 11.2495 3.85519 9.56278C3.92175 8.00406 4.18255 7.15606 4.39919 6.5919C4.68719 5.84342 5.03407 5.3119 5.59247 4.74966C6.15087 4.18742 6.68367 3.84118 7.43023 3.54934C7.99407 3.32918 8.84015 3.06742 10.3995 2.99318C12.0869 2.91318 12.5925 2.89718 16.8635 2.8879C21.1346 2.87862 21.6414 2.89462 23.3294 2.96886C24.8881 3.0367 25.7365 3.29494 26.3 3.51286C27.0478 3.80086 27.58 4.14678 28.1422 4.70614C28.7045 5.2655 29.051 5.79638 29.3429 6.54454C29.5633 7.10678 29.8251 7.95254 29.8987 9.51286C29.979 11.2002 29.9973 11.7061 30.0049 15.9769C30.0126 20.2476 29.9976 20.7548 29.9237 22.4409C29.8555 24.0009 29.5969 24.8482 29.3797 25.4133C29.0917 26.1605 28.7445 26.6933 28.1857 27.2553C27.627 27.8172 27.0949 28.1634 26.348 28.4553C25.7848 28.6751 24.9377 28.9375 23.3797 29.0117C21.6923 29.0911 21.1867 29.1077 16.9141 29.117C12.6414 29.1263 12.1374 29.109 10.4501 29.0361M23.4933 7.44854C23.4939 7.82831 23.6071 8.19936 23.8187 8.51476C24.0302 8.83016 24.3305 9.07575 24.6816 9.22047C25.0327 9.36518 25.4189 9.40253 25.7912 9.32777C26.1635 9.25301 26.5054 9.06952 26.7734 8.80049C27.0414 8.53146 27.2237 8.18899 27.2971 7.81638C27.3705 7.44377 27.3317 7.05777 27.1857 6.70719C27.0397 6.35661 26.793 6.0572 26.4768 5.84683C26.1607 5.63646 25.7892 5.52458 25.4094 5.52534C24.9003 5.52636 24.4125 5.72953 24.0531 6.09018C23.6938 6.45084 23.4924 6.93944 23.4933 7.44854ZM8.67407 16.0159C8.68303 20.5535 12.3681 24.2236 16.9048 24.2149C21.4414 24.2063 25.1141 20.5215 25.1054 15.9839C25.0968 11.4463 21.4107 7.77526 16.8734 7.78422C12.3362 7.79318 8.66543 11.4789 8.67407 16.0159ZM11.556 16.0101C11.5539 14.9553 11.8647 13.9235 12.449 13.0453C13.0333 12.167 13.8649 11.4818 14.8387 11.0762C15.8124 10.6706 16.8846 10.5628 17.9196 10.7666C18.9546 10.9703 19.9059 11.4764 20.6533 12.2208C21.4006 12.9652 21.9105 13.9146 22.1183 14.9487C22.3261 15.9829 22.2227 17.0555 21.8209 18.0308C21.4192 19.0062 20.7372 19.8405 19.8613 20.4283C18.9854 21.0161 17.9548 21.3309 16.9 21.333C16.1996 21.3345 15.5057 21.198 14.8581 20.9313C14.2104 20.6645 13.6216 20.2728 13.1254 19.7786C12.6291 19.2843 12.2351 18.697 11.9658 18.0505C11.6966 17.4039 11.5573 16.7106 11.556 16.0101Z" fill="white"/>
</g>
<defs>
<clipPath id="clip0_13_243">
<rect width="32" height="32" fill="white" transform="translate(0.889404)"/>
</clipPath>
</defs>
</svg>
