<svg width="48" height="49" viewBox="0 0 48 49" fill="none" xmlns="http://www.w3.org/2000/svg">
<path d="M6 42.5V38.5H10V6.5H30V8.5H38V38.5H42V42.5H34V12.5H30V42.5H6ZM22 26.5C22.5667 26.5 23.042 26.308 23.426 25.924C23.81 25.54 24.0013 25.0653 24 24.5C24 23.9333 23.808 23.4587 23.424 23.076C23.04 22.6933 22.5653 22.5013 22 22.5C21.4333 22.5 20.9587 22.692 20.576 23.076C20.1933 23.46 20.0013 23.9347 20 24.5C20 25.0667 20.192 25.542 20.576 25.926C20.96 26.31 21.4347 26.5013 22 26.5Z" fill="white"/>
</svg>
