<svg width="242" height="70" viewBox="0 0 242 70" fill="none" xmlns="http://www.w3.org/2000/svg">
<path d="M19.5379 47.1853C19.7702 47.4304 20.0086 47.6831 20.2483 47.9337C20.4201 48.1136 20.6008 48.2848 20.7672 48.4702C21.3281 49.095 21.3193 49.8353 20.7312 50.4363C20.3991 50.7759 20.05 51.0991 19.6962 51.4156C19.5311 51.5636 19.5216 51.6703 19.6839 51.8272C20.0493 52.181 20.4004 52.5504 20.7583 52.9124C21.0171 53.1739 21.1373 53.4734 21.1332 53.855C21.1176 55.4259 21.2575 55.3233 20.067 56.5003C19.1094 57.4463 18.1613 58.4019 17.2098 59.3547C16.9171 59.6474 16.5959 59.8769 16.1735 59.9591C15.6485 60.061 15.1724 59.9829 14.7881 59.6066C13.5181 58.3652 12.2562 57.1149 10.9985 55.8605C10.7065 55.5692 10.5761 55.1997 10.5747 54.7834C10.5713 53.6404 10.5564 52.4975 10.557 51.3545C10.557 50.7473 10.8477 50.4662 11.4678 50.437C11.9601 50.4139 12.2732 50.0784 12.2746 49.5731C12.2753 49.0902 11.9357 48.7425 11.4487 48.7283C10.8423 48.7099 10.5754 48.443 10.5652 47.8291C10.5591 47.4332 10.5604 47.0365 10.5706 46.6406C10.5849 46.0837 10.8606 45.8277 11.427 45.8284C11.9601 45.8284 12.2651 45.4942 12.2691 44.9047C12.2725 44.4205 11.9364 44.0735 11.446 44.0551C10.8708 44.0334 10.6127 43.8263 10.589 43.2395C10.5496 42.2676 10.5509 41.2938 10.5618 40.3206C10.5652 40.0265 10.4715 39.9097 10.1951 39.7936C4.95078 37.602 1.51911 33.7975 0.329948 28.2089C-0.547495 24.0831 0.339456 20.2365 2.81966 16.7865C5.25911 13.3942 8.53186 11.2441 12.6026 10.3755C17.3613 9.35948 21.7016 10.4264 25.5741 13.3209C28.4258 15.452 30.3871 18.246 31.2917 21.7123C32.2561 25.4108 31.7739 28.9654 29.9769 32.3224C28.1684 35.7011 25.5007 38.167 21.9387 39.6333C21.1312 39.9661 21.1325 39.9627 21.1339 40.8381C21.1359 42.1963 21.1169 43.5546 21.1427 44.9122C21.1522 45.3998 20.9831 45.7509 20.6347 46.0701C20.2619 46.4117 19.923 46.792 19.5393 47.1866L19.5379 47.1853ZM15.8088 13.0071C15.0169 13.1022 14.149 13.1307 13.3177 13.3195C8.85785 14.3328 5.73247 16.961 3.95042 21.1798C3.90763 21.2817 3.81595 21.3842 3.72019 21.4393C2.65327 22.0539 2.01692 22.9469 1.84781 24.1836C1.62642 25.8034 2.50318 27.4252 4.04685 27.8849C4.75927 28.0975 4.92973 28.4513 5.04314 29.1019C5.49681 31.7105 6.7566 33.8892 8.85581 35.5055C12.2094 38.0869 15.9725 38.635 19.8979 37.1911C23.9149 35.7133 26.2274 32.7163 26.8434 28.4547C26.8726 28.2544 26.9188 28.1423 27.147 28.0941C28.5704 27.7953 29.5484 26.9552 29.8703 25.5324C30.2099 24.0329 29.8024 22.7045 28.5202 21.7822C28.057 21.4494 27.8023 21.0603 27.551 20.5693C25.1184 15.814 21.2256 13.2971 15.8088 13.0078V13.0071ZM14.4682 48.4641H14.4648C14.4648 50.24 14.4661 52.0166 14.4648 53.7926C14.4639 54.5523 14.7231 55.2043 15.2424 55.7485C15.6879 56.2144 16.0112 56.2171 16.4818 55.76C16.9042 55.3505 17.3239 54.9389 17.7504 54.5342C18.2971 54.0146 18.2924 53.7348 17.7226 53.2309C17.3925 52.9389 17.0441 52.6632 16.744 52.3433C16.2665 51.8339 16.2849 51.2424 16.7752 50.7439C17.108 50.4057 17.4652 50.0913 17.8122 49.7673C18.2883 49.3239 18.2951 49.0671 17.8184 48.6142C17.4577 48.2719 17.0666 47.9602 16.7222 47.6029C16.2964 47.1608 16.3059 46.5571 16.7256 46.1109C16.9966 45.8229 17.2873 45.5533 17.5807 45.2871C18.4058 44.5373 18.414 44.3438 17.5854 43.6103C17.3627 43.4127 17.2581 43.1906 17.2703 42.8986C17.2791 42.6955 17.3117 42.4823 17.2655 42.2901C17.2024 42.0245 17.1256 41.7366 16.9667 41.5247C16.6034 41.0411 15.9202 40.8904 15.3388 41.1023C14.7921 41.3012 14.4723 41.7753 14.4709 42.4225C14.4668 44.4361 14.4695 46.4504 14.4695 48.4641H14.4682Z" fill="#1E3738"/>
<path d="M15.8088 13.0071C21.2256 13.2971 25.1184 15.814 27.551 20.5686C27.8023 21.0596 28.057 21.4488 28.5202 21.7815C29.8024 22.7038 30.2099 24.0329 29.8703 25.5317C29.5484 26.9545 28.5704 27.7939 27.147 28.0934C26.9188 28.1416 26.8719 28.2537 26.8434 28.454C26.2274 32.7156 23.9149 35.7126 19.8979 37.1904C15.9718 38.635 12.2094 38.0869 8.85581 35.5048C6.7566 33.8892 5.49681 31.7098 5.04314 29.1013C4.93041 28.4513 4.75927 28.0968 4.04685 27.8842C2.50318 27.4238 1.62642 25.802 1.84781 24.183C2.01692 22.9463 2.65259 22.0532 3.72019 21.4386C3.81595 21.3836 3.90763 21.281 3.95042 21.1791C5.73315 16.9604 8.85785 14.3321 13.3177 13.3188C14.149 13.13 15.0169 13.1015 15.8088 13.0064V13.0071ZM19.3158 16.1461C18.7033 15.6394 18.16 15.0995 17.5318 14.6893C16.2699 13.8649 14.623 14.1012 13.3788 15.2191C10.7961 17.5397 8.2181 19.865 5.63739 22.1883C5.11649 22.6576 4.56979 23.1004 4.07606 23.5962C3.32222 24.3521 3.53139 25.6058 4.4652 26.1056C5.13143 26.4621 5.81328 26.3698 6.49242 25.7708C7.49278 24.8879 8.4721 23.9806 9.45684 23.08C11.2844 21.408 13.1086 19.7319 14.9361 18.0606C15.5582 17.4914 16.0675 17.4901 16.6951 18.0538C18.2937 19.4895 19.889 20.9292 21.487 22.3656C22.7991 23.5453 24.1051 24.731 25.4301 25.8964C25.9951 26.3935 26.6546 26.4397 27.2896 26.0934C27.9096 25.7552 28.201 25.1806 28.1195 24.4492C28.0685 23.9928 27.8057 23.6675 27.4736 23.3741C25.8817 21.9656 24.298 20.5469 22.7047 19.139C22.501 18.9591 22.4202 18.7696 22.431 18.4932C22.4602 17.7135 22.4725 16.9325 22.463 16.1522C22.4528 15.2985 21.8327 14.5766 21.087 14.5087C20.2639 14.4333 19.5794 14.9297 19.3872 15.744C19.3566 15.8737 19.3403 16.0062 19.3152 16.1474L19.3158 16.1461ZM15.7253 33.9163C16.8567 33.9014 17.851 33.6678 18.7528 33.1278C19.705 32.5581 20.4772 31.8063 20.8548 30.7353C21.0728 30.1172 20.7787 29.4755 20.2239 29.2262C19.6561 28.9715 19.0279 29.1766 18.6659 29.7383C18.5742 29.8802 18.5036 30.0385 18.397 30.1675C17.2812 31.5258 15.4815 31.5027 14.3833 31.0008C13.7761 30.723 13.3653 30.2436 13.023 29.6765C12.7079 29.1536 12.1469 29.0035 11.5744 29.216C11.063 29.4062 10.7329 29.9128 10.8267 30.4806C10.8762 30.7835 11.0059 31.0898 11.1649 31.3546C12.2128 33.1048 13.8278 33.8464 15.7246 33.917L15.7253 33.9163ZM13.9446 25.4964C13.9188 24.4811 13.1099 23.6723 12.134 23.6852C11.0793 23.6994 10.2528 24.5409 10.2834 25.5698C10.3139 26.5912 11.1329 27.3586 12.1666 27.3335C13.1683 27.309 13.9697 26.4812 13.9439 25.4957L13.9446 25.4964ZM21.485 25.4951C21.4517 24.4539 20.6374 23.6566 19.6337 23.6838C18.5837 23.7123 17.8014 24.5341 17.8299 25.5786C17.8564 26.5606 18.7087 27.3613 19.7002 27.3369C20.704 27.3124 21.5169 26.4737 21.4857 25.4951H21.485Z" fill="white"/>
<path d="M14.4682 48.4641C14.4682 46.4504 14.4655 44.4361 14.4695 42.4225C14.4709 41.7753 14.7901 41.3012 15.3375 41.1023C15.9188 40.8904 16.602 41.0411 16.9654 41.5247C17.125 41.7366 17.2017 42.0245 17.2642 42.2901C17.3097 42.4829 17.2778 42.6955 17.2689 42.8986C17.256 43.1906 17.3606 43.4127 17.5841 43.6103C18.4126 44.3438 18.4044 44.5373 17.5793 45.2871C17.2866 45.5533 16.9952 45.8229 16.7243 46.1109C16.3046 46.5571 16.2957 47.1608 16.7209 47.6029C17.0652 47.9602 17.4571 48.2719 17.817 48.6142C18.2937 49.0678 18.287 49.3239 17.8109 49.7673C17.4632 50.0913 17.1059 50.4057 16.7738 50.7439C16.2835 51.2431 16.2652 51.8339 16.7426 52.3433C17.0428 52.6638 17.3912 52.9389 17.7212 53.2309C18.291 53.7348 18.2958 54.0146 17.7491 54.5342C17.3226 54.9389 16.9029 55.3512 16.4805 55.76C16.0098 56.2164 15.6866 56.2137 15.241 55.7485C14.7199 55.2043 14.4607 54.5523 14.4634 53.7926C14.4655 52.0166 14.4634 50.24 14.4634 48.4641H14.4668H14.4682Z" fill="white"/>
<path d="M19.3158 16.1468C19.3403 16.0055 19.3573 15.8724 19.3878 15.7434C19.5794 14.9291 20.2646 14.4326 21.0877 14.508C21.8334 14.5766 22.4535 15.2978 22.4636 16.1515C22.4731 16.9318 22.4609 17.7128 22.4317 18.4925C22.4215 18.7682 22.5017 18.9577 22.7054 19.1383C24.2987 20.5462 25.8824 21.9642 27.4743 23.3734C27.8064 23.6675 28.0692 23.9928 28.1202 24.4485C28.2016 25.1799 27.9103 25.7552 27.2902 26.0927C26.6553 26.439 25.9958 26.3929 25.4308 25.8957C24.1065 24.7303 22.7998 23.5446 21.4877 22.3649C19.8897 20.9285 18.2944 19.4888 16.6957 18.0531C16.0682 17.4894 15.5589 17.4908 14.9368 18.0599C13.1092 19.7319 11.2851 21.4073 9.45752 23.0794C8.47278 23.9799 7.49346 24.8872 6.4931 25.7701C5.81328 26.3698 5.13143 26.4621 4.46588 26.1049C3.53207 25.6051 3.3229 24.3514 4.07674 23.5955C4.57115 23.0997 5.11717 22.6563 5.63807 22.1877C8.21878 19.865 10.7968 17.539 13.3795 15.2184C14.6237 14.1005 16.2706 13.8649 17.5324 14.6887C18.1606 15.0989 18.7039 15.6388 19.3165 16.1454L19.3158 16.1468Z" fill="#1E3738"/>
<path d="M15.7253 33.9163C13.8284 33.8457 12.2135 33.1041 11.1655 31.3539C11.0066 31.0884 10.8769 30.7821 10.8273 30.4799C10.7336 29.9128 11.0637 29.4055 11.5751 29.2154C12.1476 29.0028 12.7079 29.1529 13.0237 29.6758C13.3659 30.2429 13.7761 30.723 14.384 31.0001C15.4828 31.5027 17.2818 31.5251 18.3977 30.1668C18.5043 30.0371 18.5749 29.8795 18.6666 29.7376C19.0293 29.176 19.6568 28.9709 20.2245 29.2255C20.7787 29.4748 21.0734 30.1166 20.8554 30.7346C20.4772 31.8056 19.7057 32.5574 18.7535 33.1272C17.8516 33.6671 16.8574 33.9 15.7259 33.9156L15.7253 33.9163Z" fill="#1E3738"/>
<path d="M13.9446 25.4964C13.9697 26.4818 13.1683 27.3097 12.1673 27.3341C11.1336 27.3593 10.3146 26.5919 10.284 25.5704C10.2528 24.5415 11.0793 23.7001 12.1347 23.6858C13.1106 23.6729 13.9188 24.4818 13.9452 25.4971L13.9446 25.4964Z" fill="#1E3738"/>
<path d="M21.485 25.4951C21.5162 26.4737 20.7033 27.3117 19.6996 27.3369C18.708 27.3613 17.8564 26.5599 17.8292 25.5786C17.8007 24.5341 18.5837 23.7123 19.633 23.6838C20.6368 23.6566 21.451 24.4539 21.4843 25.4951L21.485 25.4951Z" fill="#1E3738"/>
<path d="M45.2589 56V25.368L44.1389 19.712L45.2589 16.352H63.1789C65.9042 16.352 68.3496 16.7813 70.5149 17.64C72.7176 18.4613 74.4536 19.88 75.7229 21.896C77.0296 23.8747 77.6829 26.6187 77.6829 30.128C77.6829 33.3013 77.1042 35.8773 75.9469 37.856C74.7896 39.7973 73.1842 41.2533 71.1309 42.224L71.6909 42.84L77.2349 49.784L80.4269 52.64V56H67.8269L59.9869 44.072H55.3389V46.984L55.8989 52.584L55.3389 56H45.2589ZM55.3389 35.28H60.8269C62.7682 35.28 64.3176 34.9253 65.4749 34.216C66.6322 33.4693 67.2109 32.1067 67.2109 30.128C67.2109 28.7467 66.9309 27.72 66.3709 27.048C65.8109 26.3387 65.0269 25.872 64.0189 25.648C63.0482 25.424 61.9096 25.312 60.6029 25.312H54.7789L55.3389 35.28ZM95.6165 56.56C91.0618 56.56 87.5338 55.4773 85.0325 53.312C82.5311 51.1467 81.2805 47.6373 81.2805 42.784C81.2805 37.8933 82.5311 34.384 85.0325 32.256C87.5338 30.0907 91.0618 29.008 95.6165 29.008C100.283 29.008 103.811 30.0907 106.2 32.256C108.627 34.384 109.84 37.8933 109.84 42.784C109.84 47.6373 108.627 51.1467 106.2 53.312C103.811 55.4773 100.283 56.56 95.6165 56.56ZM95.6165 49.28C97.1471 49.28 98.2111 48.72 98.8085 47.6C99.4058 46.4427 99.7045 44.8373 99.7045 42.784C99.7045 40.6933 99.4058 39.088 98.8085 37.968C98.2111 36.848 97.1471 36.288 95.6165 36.288C94.0485 36.288 92.9471 36.848 92.3125 37.968C91.7151 39.088 91.4165 40.6933 91.4165 42.784C91.4165 44.8373 91.7151 46.4427 92.3125 47.6C92.9471 48.72 94.0485 49.28 95.6165 49.28ZM126.952 56.56C122.398 56.56 118.87 55.4773 116.368 53.312C113.867 51.1467 112.616 47.6373 112.616 42.784C112.616 37.8933 113.867 34.384 116.368 32.256C118.87 30.0907 122.398 29.008 126.952 29.008C131.619 29.008 135.147 30.0907 137.536 32.256C139.963 34.384 141.176 37.8933 141.176 42.784C141.176 47.6373 139.963 51.1467 137.536 53.312C135.147 55.4773 131.619 56.56 126.952 56.56ZM126.952 49.28C128.483 49.28 129.547 48.72 130.144 47.6C130.742 46.4427 131.04 44.8373 131.04 42.784C131.04 40.6933 130.742 39.088 130.144 37.968C129.547 36.848 128.483 36.288 126.952 36.288C125.384 36.288 124.283 36.848 123.648 37.968C123.051 39.088 122.752 40.6933 122.752 42.784C122.752 44.8373 123.051 46.4427 123.648 47.6C124.283 48.72 125.384 49.28 126.952 49.28ZM144.792 32.984L146.528 29.568H154.872V31.976L155.376 32.312C155.787 31.9387 156.347 31.5093 157.056 31.024C157.803 30.5013 158.699 30.0347 159.744 29.624C160.79 29.2133 161.966 29.008 163.272 29.008C167.155 29.008 169.936 30.296 171.616 32.872C172.288 31.9387 173.296 31.0613 174.64 30.24C176.022 29.3813 177.926 28.952 180.352 28.952C183.712 28.952 186.232 29.904 187.912 31.808C189.592 33.712 190.432 36.3813 190.432 39.816V46.984L191.608 52.584L190.432 56H180.352V41.272C180.352 39.8533 180.035 38.7707 179.4 38.024C178.803 37.24 177.851 36.848 176.544 36.848C175.686 36.848 174.939 37.1653 174.304 37.8C173.67 38.4347 173.352 39.2373 173.352 40.208V56H163.272V41.328C163.272 39.9093 162.955 38.8267 162.32 38.08C161.723 37.296 160.771 36.904 159.464 36.904L155.992 37.968V56H145.912V39.144L144.792 32.984ZM202.249 27.944L195.137 20.776L202.249 13.664L209.361 20.776L202.249 27.944ZM197.209 56V37.464L196.033 32.984L197.153 29.568H207.289V56H197.209ZM225.937 56.56C221.382 56.56 217.854 55.4773 215.353 53.312C212.851 51.1467 211.601 47.6373 211.601 42.784C211.601 37.8933 212.851 34.384 215.353 32.256C217.854 30.0907 221.382 29.008 225.937 29.008C230.603 29.008 234.131 30.0907 236.521 32.256C238.947 34.384 240.161 37.8933 240.161 42.784C240.161 47.6373 238.947 51.1467 236.521 53.312C234.131 55.4773 230.603 56.56 225.937 56.56ZM225.937 49.28C227.467 49.28 228.531 48.72 229.129 47.6C229.726 46.4427 230.025 44.8373 230.025 42.784C230.025 40.6933 229.726 39.088 229.129 37.968C228.531 36.848 227.467 36.288 225.937 36.288C224.369 36.288 223.267 36.848 222.633 37.968C222.035 39.088 221.737 40.6933 221.737 42.784C221.737 44.8373 222.035 46.4427 222.633 47.6C223.267 48.72 224.369 49.28 225.937 49.28Z" fill="#1E3738"/>
</svg>
