<svg width="43" height="65" viewBox="0 0 43 65" fill="none" xmlns="http://www.w3.org/2000/svg">
<path d="M0 0H42.4667V65H0C0 43.3333 0 21.6667 0 0ZM25.7937 48.1182C26.2843 47.6147 26.7159 47.1302 27.1917 46.6934C27.6354 46.2861 27.8521 45.838 27.8399 45.2157C27.807 43.4833 27.8313 41.7499 27.8287 40.0166C27.8269 38.8995 27.8252 38.9038 28.8557 38.4791C33.4005 36.608 36.8047 33.4611 39.1135 29.1495C41.4067 24.8655 42.0229 20.3303 40.7914 15.6095C39.6379 11.1861 37.1341 7.6206 33.4949 4.901C28.5549 1.209 23.0152 -0.152533 16.9433 1.144C11.7485 2.25333 7.57207 4.99633 4.459 9.32707C1.29307 13.7289 0.1612 18.6385 1.28093 23.9035C2.79847 31.0353 7.17687 35.8904 13.8701 38.6871C14.2237 38.8345 14.3425 38.9844 14.3381 39.3597C14.3243 40.6007 14.3225 41.8444 14.3728 43.0846C14.4031 43.8334 14.7325 44.0977 15.4665 44.1255C16.0923 44.1489 16.5221 44.5917 16.5169 45.2097C16.5117 45.9619 16.1226 46.3883 15.4423 46.3883C14.7195 46.3883 14.3676 46.7151 14.3494 47.4249C14.3364 47.9301 14.3338 48.4363 14.3425 48.9415C14.3555 49.725 14.6961 50.0656 15.47 50.089C16.0914 50.1072 16.5256 50.5518 16.5239 51.1671C16.5221 51.8119 16.1235 52.2401 15.4943 52.2695C14.703 52.3068 14.3321 52.6656 14.3321 53.4404C14.3312 54.899 14.3503 56.3576 14.3546 57.8162C14.3563 58.3483 14.5227 58.8189 14.8954 59.1907C16.5005 60.7915 18.1107 62.387 19.7314 63.9713C20.2228 64.4514 20.8295 64.5519 21.4994 64.4211C22.0385 64.3162 22.4484 64.0233 22.8219 63.6497C24.0361 62.4338 25.246 61.2153 26.468 60.0071C27.9873 58.5052 27.8087 58.6361 27.8287 56.6315C27.8339 56.1444 27.6805 55.7622 27.3503 55.4285C26.8935 54.9666 26.4455 54.496 25.9792 54.0436C25.7721 53.8434 25.7842 53.7065 25.9948 53.5184C26.4463 53.1145 26.8918 52.702 27.3156 52.2687C28.0653 51.5017 28.0765 50.557 27.3615 49.7597C27.1501 49.5239 26.9195 49.3047 26.6994 49.075C26.3935 48.7552 26.0893 48.4328 25.7929 48.1199L25.7937 48.1182Z" fill="#1E3738"/>
<path d="M25.7937 48.1182C26.0901 48.4311 26.3943 48.7535 26.7003 49.0733C26.9195 49.3029 27.1501 49.5213 27.3624 49.7579C28.0783 50.5553 28.067 51.4999 27.3165 52.2669C26.8927 52.7003 26.4472 53.1128 25.9957 53.5167C25.7851 53.7056 25.7729 53.8417 25.9801 54.0419C26.4463 54.4934 26.8944 54.9649 27.3511 55.4268C27.6813 55.7605 27.8347 56.1427 27.8295 56.6297C27.8096 58.6343 27.9881 58.5035 26.4689 60.0054C25.2469 61.2127 24.037 62.4321 22.8228 63.648C22.4493 64.0215 22.0393 64.3145 21.5003 64.4193C20.8303 64.5493 20.2228 64.4497 19.7323 63.9695C18.1116 62.3853 16.5013 60.7897 14.8963 59.189C14.5236 58.8172 14.3572 58.3457 14.3555 57.8145C14.3511 56.3559 14.3321 54.8973 14.3329 53.4387C14.3329 52.6639 14.7039 52.3051 15.4951 52.2678C16.1235 52.2383 16.523 51.8102 16.5247 51.1654C16.5256 50.5492 16.0923 50.1055 15.4709 50.0873C14.6969 50.0639 14.3563 49.7233 14.3433 48.9398C14.3355 48.4345 14.3373 47.9284 14.3503 47.4231C14.3685 46.7125 14.7203 46.3857 15.4431 46.3866C16.1235 46.3866 16.5126 45.9602 16.5178 45.2079C16.5221 44.59 16.0931 44.1471 15.4674 44.1237C14.7333 44.096 14.404 43.8317 14.3737 43.0829C14.3234 41.8427 14.3251 40.5999 14.339 39.3579C14.3433 38.9827 14.2237 38.8336 13.871 38.6854C7.1786 35.8887 2.79933 31.0336 1.2818 23.9018C0.162067 18.6368 1.29393 13.728 4.459 9.32533C7.57207 4.99633 11.7485 2.25247 16.9433 1.144C23.0161 -0.152533 28.5549 1.209 33.4967 4.90273C37.1358 7.62233 39.6387 11.1878 40.7931 15.6113C42.0238 20.3311 41.4085 24.8673 39.1153 29.1512C36.8073 33.4629 33.4031 36.6097 28.8574 38.4809C27.8269 38.9055 27.8287 38.9012 27.8304 40.0183C27.833 41.7517 27.8087 43.485 27.8417 45.2175C27.8538 45.8397 27.638 46.2878 27.1934 46.6951C26.7176 47.1311 26.2851 47.6164 25.7955 48.1199L25.7937 48.1182ZM21.0349 4.50233C20.0243 4.62367 18.9167 4.66007 17.8559 4.901C12.1645 6.19407 8.17613 9.54807 5.902 14.9318C5.8474 15.0618 5.7304 15.1927 5.6082 15.2629C4.24667 16.0472 3.4346 17.1869 3.2188 18.7651C2.93627 20.8321 4.05513 22.9017 6.02507 23.4884C6.9342 23.7597 7.15173 24.2112 7.29647 25.0415C7.8754 28.3703 9.48307 31.1506 12.1619 33.2133C16.4415 36.5075 21.2437 37.2069 26.2531 35.3643C31.3794 33.4785 34.3304 29.6539 35.1165 24.2155C35.1537 23.9599 35.2127 23.8169 35.5039 23.7553C37.3204 23.374 38.5684 22.3019 38.9792 20.4863C39.4125 18.5727 38.8925 16.8775 37.2563 15.7005C36.6652 15.2759 36.3402 14.7793 36.0195 14.1527C32.9151 8.08427 27.9474 4.8724 21.0349 4.5032V4.50233ZM19.3241 49.7501H19.3197C19.3197 52.0165 19.3215 54.2837 19.3197 56.55C19.3186 57.5195 19.6494 58.3515 20.3121 59.046C20.8806 59.6405 21.2931 59.644 21.8937 59.0607C22.4328 58.5381 22.9684 58.0129 23.5127 57.4964C24.2103 56.8334 24.2043 56.4763 23.4771 55.8333C23.0559 55.4606 22.6113 55.1087 22.2283 54.7005C21.619 54.0505 21.6424 53.2957 22.2681 52.6595C22.6928 52.2279 23.1487 51.8267 23.5915 51.4133C24.1991 50.8473 24.2077 50.5197 23.5993 49.9417C23.1391 49.5049 22.6399 49.1071 22.2005 48.6512C21.6571 48.087 21.6693 47.3165 22.2049 46.7471C22.5507 46.3797 22.9216 46.0356 23.296 45.6959C24.349 44.7391 24.3594 44.4921 23.3021 43.5561C23.0178 43.3039 22.8843 43.0205 22.8999 42.6478C22.9112 42.3887 22.9528 42.1165 22.8939 41.8713C22.8133 41.5324 22.7153 41.1649 22.5125 40.8945C22.0489 40.2775 21.177 40.0851 20.4351 40.3555C19.7375 40.6094 19.3293 41.2143 19.3275 42.0403C19.3223 44.6099 19.3258 47.1805 19.3258 49.7501H19.3241Z" fill="white"/>
<path d="M21.0349 4.50233C27.9474 4.8724 32.9151 8.08427 36.0195 14.1518C36.3402 14.7784 36.6652 15.275 37.2563 15.6997C38.8925 16.8766 39.4125 18.5727 38.9792 20.4854C38.5684 22.3011 37.3204 23.3723 35.5039 23.7545C35.2127 23.816 35.1529 23.959 35.1165 24.2147C34.3304 29.653 31.3794 33.4776 26.2531 35.3635C21.2429 37.2069 16.4415 36.5075 12.1619 33.2124C9.48307 31.1506 7.8754 28.3695 7.29647 25.0406C7.1526 24.2112 6.9342 23.7588 6.02507 23.4875C4.05513 22.8999 2.93627 20.8303 3.2188 18.7642C3.4346 17.186 4.2458 16.0463 5.6082 15.262C5.7304 15.1918 5.8474 15.0609 5.902 14.9309C8.177 9.5472 12.1645 6.1932 17.8559 4.90013C18.9167 4.6592 20.0243 4.6228 21.0349 4.50147V4.50233ZM25.5103 8.50807C24.7286 7.86153 24.0353 7.17253 23.2336 6.64907C21.6233 5.59693 19.5217 5.89853 17.9339 7.32507C14.638 10.2865 11.3481 13.2539 8.0548 16.2188C7.39007 16.8177 6.6924 17.3827 6.06233 18.0154C5.10033 18.98 5.36727 20.5799 6.55893 21.2177C7.40913 21.6727 8.27927 21.5549 9.14593 20.7905C10.4225 19.6638 11.6723 18.5059 12.9289 17.3567C15.2611 15.223 17.589 13.0841 19.9212 10.9512C20.7151 10.2249 21.3651 10.2232 22.1659 10.9425C24.206 12.7747 26.2418 14.612 28.2811 16.445C29.9555 17.9504 31.6221 19.4636 33.3129 20.9508C34.034 21.5852 34.8755 21.6441 35.6859 21.2021C36.4771 20.7705 36.8489 20.0373 36.7449 19.1039C36.6799 18.5215 36.3445 18.1064 35.9207 17.732C33.8893 15.9345 31.8682 14.1241 29.835 12.3275C29.575 12.0978 29.4719 11.856 29.4857 11.5033C29.523 10.5083 29.5386 9.51167 29.5265 8.51587C29.5135 7.42647 28.7222 6.5052 27.7706 6.41853C26.7202 6.32233 25.8466 6.95587 25.6013 7.995C25.5623 8.16053 25.5415 8.32953 25.5095 8.5098L25.5103 8.50807ZM20.9283 31.1853C22.3721 31.1662 23.6409 30.8681 24.7919 30.1791C26.0069 29.4519 26.9923 28.4925 27.4742 27.1258C27.7524 26.3371 27.3771 25.5181 26.6691 25.2001C25.9445 24.8751 25.1429 25.1368 24.6809 25.8535C24.5639 26.0347 24.4738 26.2366 24.3377 26.4013C22.9138 28.1346 20.6171 28.1051 19.2157 27.4647C18.4409 27.1102 17.9166 26.4983 17.4798 25.7747C17.0777 25.1073 16.3618 24.9158 15.6312 25.1871C14.9786 25.4297 14.5574 26.0763 14.677 26.8008C14.7403 27.1873 14.9058 27.5782 15.1086 27.9162C16.4459 30.1496 18.5068 31.096 20.9274 31.1861L20.9283 31.1853ZM18.6559 20.4403C18.6229 19.1447 17.5907 18.1125 16.3453 18.1289C14.9994 18.1471 13.9447 19.2209 13.9837 20.5339C14.0227 21.8374 15.0679 22.8167 16.3869 22.7847C17.6653 22.7535 18.6879 21.697 18.655 20.4395L18.6559 20.4403ZM28.2785 20.4386C28.236 19.11 27.1969 18.0925 25.9159 18.1272C24.5761 18.1636 23.5777 19.2123 23.6141 20.5452C23.6479 21.7984 24.7355 22.8202 26.0009 22.789C27.2818 22.7578 28.3192 21.6875 28.2793 20.4386H28.2785Z" fill="#1E3738"/>
<path d="M19.3241 49.7501C19.3241 47.1805 19.3206 44.6099 19.3258 42.0403C19.3275 41.2143 19.7349 40.6094 20.4334 40.3555C21.1753 40.0851 22.0471 40.2775 22.5108 40.8945C22.7145 41.1649 22.8124 41.5324 22.8921 41.8713C22.9502 42.1174 22.9095 42.3887 22.8982 42.6478C22.8817 43.0205 23.0152 43.3039 23.3003 43.5561C24.3577 44.4921 24.3473 44.7391 23.2943 45.6959C22.9207 46.0356 22.5489 46.3797 22.2031 46.7471C21.6675 47.3165 21.6563 48.087 22.1988 48.6512C22.6382 49.1071 23.1383 49.5049 23.5976 49.9417C24.206 50.5206 24.1973 50.8473 23.5898 51.4133C23.1461 51.8267 22.6902 52.2279 22.2664 52.6595C21.6407 53.2965 21.6173 54.0505 22.2265 54.7005C22.6096 55.1096 23.0542 55.4606 23.4754 55.8333C24.2025 56.4763 24.2086 56.8334 23.5109 57.4964C22.9667 58.0129 22.4311 58.539 21.892 59.0607C21.2914 59.6431 20.8789 59.6397 20.3103 59.046C19.6453 58.3515 19.3145 57.5195 19.318 56.55C19.3206 54.2837 19.318 52.0165 19.318 49.7501H19.3223H19.3241Z" fill="#1E3738"/>
<path d="M25.5103 8.50893C25.5415 8.32867 25.5632 8.1588 25.6022 7.99413C25.8466 6.955 26.7211 6.32147 27.7715 6.41767C28.7231 6.5052 29.5143 7.4256 29.5273 8.515C29.5395 9.5108 29.5239 10.5075 29.4866 11.5024C29.4736 11.8543 29.5759 12.0961 29.8359 12.3266C31.8691 14.1232 33.8901 15.9328 35.9216 17.7311C36.3454 18.1064 36.6808 18.5215 36.7458 19.1031C36.8498 20.0365 36.478 20.7705 35.6867 21.2013C34.8764 21.6433 34.0349 21.5843 33.3138 20.9499C31.6238 19.4627 29.9563 17.9495 28.2819 16.4441C26.2427 14.6111 24.2069 12.7738 22.1667 10.9417C21.3659 10.2223 20.7159 10.2241 19.9221 10.9503C17.5899 13.0841 15.262 15.2221 12.9298 17.3559C11.6731 18.5051 10.4234 19.6629 9.1468 20.7896C8.27927 21.5549 7.40913 21.6727 6.5598 21.2169C5.36813 20.579 5.1012 18.9791 6.0632 18.0145C6.69413 17.3819 7.39093 16.8159 8.05567 16.2179C11.349 13.2539 14.6389 10.2856 17.9348 7.3242C19.5225 5.89767 21.6242 5.59693 23.2345 6.6482C24.0361 7.17167 24.7295 7.86067 25.5112 8.5072L25.5103 8.50893Z" fill="white"/>
<path d="M20.9283 31.1853C18.5077 31.0951 16.4467 30.1487 15.1095 27.9153C14.9067 27.5765 14.7411 27.1856 14.6779 26.7999C14.5583 26.0763 14.9795 25.4289 15.6321 25.1862C16.3627 24.9149 17.0777 25.1065 17.4807 25.7738C17.9175 26.4975 18.4409 27.1102 19.2166 27.4638C20.6189 28.1051 22.9147 28.1337 24.3386 26.4004C24.4747 26.2349 24.5648 26.0338 24.6818 25.8527C25.1446 25.1359 25.9454 24.8742 26.6699 25.1992C27.3771 25.5173 27.7533 26.3363 27.4751 27.1249C26.9923 28.4917 26.0078 29.4511 24.7927 30.1782C23.6418 30.8672 22.373 31.1645 20.9291 31.1844L20.9283 31.1853Z" fill="white"/>
<path d="M18.6559 20.4403C18.6879 21.6979 17.6653 22.7543 16.3878 22.7855C15.0687 22.8176 14.0235 21.8383 13.9845 20.5348C13.9447 19.2218 14.9994 18.148 16.3462 18.1298C17.5916 18.1133 18.6229 19.1455 18.6567 20.4412L18.6559 20.4403Z" fill="white"/>
<path d="M28.2785 20.4386C28.3183 21.6875 27.2809 22.7569 26 22.789C24.7347 22.8202 23.6479 21.7975 23.6132 20.5452C23.5768 19.2123 24.5761 18.1636 25.9151 18.1272C27.196 18.0925 28.2351 19.11 28.2776 20.4386H28.2785Z" fill="white"/>
</svg>
