<svg width="42" height="65" viewBox="0 0 42 65" fill="none" xmlns="http://www.w3.org/2000/svg">
<path d="M25.3993 48.3408C25.7012 48.6596 26.0111 48.988 26.3228 49.3138C26.5462 49.5477 26.781 49.7702 26.9973 50.0112C27.7266 50.8235 27.7151 51.7858 26.9505 52.5672C26.5188 53.0086 26.065 53.4289 25.605 53.8403C25.3905 54.0327 25.3781 54.1714 25.5891 54.3753C26.0641 54.8353 26.5206 55.3156 26.9858 55.7861C27.3222 56.126 27.4785 56.5154 27.4732 57.0116C27.4529 59.0537 27.6347 58.9203 26.0871 60.4504C24.8422 61.6802 23.6097 62.9224 22.3728 64.1611C21.9923 64.5416 21.5747 64.84 21.0255 64.9469C20.3431 65.0793 19.7242 64.9778 19.2245 64.4886C17.5735 62.8747 15.9331 61.2494 14.298 59.6187C13.9184 59.2399 13.7489 58.7597 13.7471 58.2185C13.7427 56.7326 13.7233 55.2467 13.7242 53.7608C13.7242 52.9715 14.102 52.606 14.9081 52.5681C15.5482 52.538 15.9552 52.1019 15.9569 51.445C15.9578 50.8173 15.5164 50.3653 14.8834 50.3467C14.095 50.3229 13.748 49.9759 13.7347 49.1778C13.7268 48.6631 13.7286 48.1475 13.7418 47.6328C13.7604 46.9088 14.1188 46.576 14.8551 46.5769C15.5482 46.5769 15.9446 46.1425 15.9499 45.3761C15.9543 44.7467 15.5173 44.2955 14.8798 44.2717C14.132 44.2434 13.7966 43.9741 13.7657 43.2113C13.7144 41.9479 13.7162 40.6819 13.7303 39.4167C13.7347 39.0345 13.6129 38.8826 13.2536 38.7316C6.43602 35.8826 1.97485 30.9367 0.428932 23.6715C-0.711743 18.3081 0.441292 13.3075 3.66555 8.82245C6.83684 4.41249 11.0914 1.61731 16.3834 0.488108C22.5697 -0.832674 28.2121 0.554324 33.2463 4.31714C36.9535 7.0876 39.5032 10.7198 40.6792 15.2259C41.9329 20.0341 41.3061 24.6551 38.97 29.0191C36.6189 33.4114 33.151 36.6171 28.5203 38.5233C27.4705 38.9559 27.4723 38.9515 27.4741 40.0895C27.4767 41.8552 27.452 43.621 27.4855 45.3859C27.4979 46.0198 27.2781 46.4762 26.8251 46.8912C26.3404 47.3352 25.8999 47.8297 25.4011 48.3426L25.3993 48.3408ZM20.5514 3.90925C19.522 4.03285 18.3937 4.06993 17.313 4.31537C11.5152 5.63262 7.45221 9.04935 5.13554 14.5338C5.07992 14.6662 4.96073 14.7995 4.83625 14.871C3.44925 15.67 2.62199 16.831 2.40216 18.4387C2.11434 20.5444 3.25413 22.6527 5.26091 23.2504C6.18705 23.5267 6.40865 23.9867 6.55609 24.8325C7.14585 28.2236 8.78358 31.0559 11.5126 33.1572C15.8722 36.513 20.7642 37.2254 25.8672 35.3484C31.0894 33.4273 34.0956 29.5312 34.8964 23.9911C34.9344 23.7307 34.9944 23.585 35.291 23.5223C37.1415 23.1339 38.4129 22.0417 38.8314 20.1921C39.2728 18.2427 38.7431 16.5158 37.0762 15.3169C36.4741 14.8843 36.143 14.3784 35.8164 13.7401C32.6539 7.55818 27.5932 4.28624 20.5514 3.91013V3.90925ZM18.8086 50.0033H18.8042C18.8042 52.312 18.806 54.6216 18.8042 56.9303C18.803 57.918 19.14 58.7655 19.8151 59.473C20.3943 60.0787 20.8145 60.0822 21.4264 59.488C21.9755 58.9557 22.5211 58.4206 23.0756 57.8944C23.7863 57.219 23.7801 56.8553 23.0394 56.2002C22.6103 55.8206 22.1574 55.4621 21.7672 55.0463C21.1465 54.3841 21.1703 53.6151 21.8078 52.9671C22.2404 52.5274 22.7048 52.1187 23.1559 51.6975C23.7748 51.121 23.7836 50.7873 23.1639 50.1984C22.6951 49.7534 22.1865 49.3482 21.7389 48.8838C21.1853 48.3091 21.1977 47.5242 21.7433 46.9441C22.0956 46.5698 22.4735 46.2193 22.8549 45.8732C23.9275 44.8985 23.9381 44.6469 22.861 43.6934C22.5715 43.4365 22.4355 43.1478 22.4514 42.7681C22.4629 42.5042 22.5052 42.2269 22.4452 41.9771C22.3631 41.6319 22.2633 41.2575 22.0567 40.9821C21.5844 40.3535 20.6962 40.1575 19.9405 40.4329C19.2298 40.6916 18.8139 41.3079 18.8122 42.1492C18.8069 44.767 18.8104 47.3856 18.8104 50.0033H18.8086Z" fill="#1E3738"/>
<path d="M20.5514 3.90925C27.5932 4.28624 32.6539 7.55817 35.8164 13.7392C36.143 14.3775 36.4741 14.8834 37.0762 15.316C38.7431 16.5149 39.2728 18.2427 38.8314 20.1912C38.4129 22.0409 37.1415 23.1321 35.291 23.5214C34.9944 23.5841 34.9335 23.7298 34.8964 23.9903C34.0956 29.5303 31.0894 33.4264 25.8672 35.3476C20.7633 37.2254 15.8722 36.513 11.5126 33.1563C8.78358 31.0559 7.14585 28.2228 6.55609 24.8316C6.40953 23.9867 6.18705 23.5259 5.26091 23.2495C3.25413 22.6509 2.11434 20.5426 2.40216 18.4379C2.62199 16.8301 3.44837 15.6692 4.83625 14.8702C4.96073 14.7986 5.07992 14.6653 5.13554 14.5329C7.45309 9.04847 11.5152 5.63174 17.313 4.31449C18.3937 4.06905 19.522 4.03197 20.5514 3.90837V3.90925ZM25.1106 7.9899C24.3143 7.33128 23.6079 6.62939 22.7913 6.09613C21.1509 5.02432 19.0099 5.33156 17.3925 6.78478C14.0349 9.80156 10.6835 12.8245 7.32861 15.8448C6.65144 16.4549 5.94072 17.0305 5.29887 17.675C4.31888 18.6577 4.59081 20.2875 5.80476 20.9373C6.67086 21.4008 7.55727 21.2807 8.44014 20.502C9.74062 19.3543 11.0137 18.1748 12.2939 17.0041C14.6697 14.8304 17.0411 12.6515 19.4169 10.4787C20.2257 9.73888 20.8878 9.73711 21.7036 10.4699C23.7819 12.3363 25.8558 14.208 27.9332 16.0753C29.6389 17.6088 31.3366 19.1503 33.0591 20.6653C33.7937 21.3116 34.651 21.3716 35.4764 20.9214C36.2825 20.4817 36.6613 19.7348 36.5553 18.7839C36.4891 18.1906 36.1474 17.7677 35.7157 17.3863C33.6462 15.5553 31.5874 13.7109 29.5162 11.8807C29.2513 11.6468 29.1462 11.4004 29.1604 11.0411C29.1983 10.0276 29.2142 9.01227 29.2018 7.99785C29.1886 6.88807 28.3825 5.94958 27.4131 5.86129C26.3431 5.76329 25.4532 6.40867 25.2033 7.46724C25.1636 7.63587 25.1424 7.80803 25.1097 7.99167L25.1106 7.9899ZM20.4428 31.0912C21.9137 31.0718 23.2062 30.7681 24.3787 30.0662C25.6165 29.3255 26.6203 28.3481 27.1112 26.9558C27.3946 26.1524 27.0123 25.3181 26.291 24.9941C25.5529 24.663 24.7363 24.9296 24.2657 25.6598C24.1465 25.8443 24.0547 26.05 23.9161 26.2178C22.4655 27.9835 20.1259 27.9535 18.6983 27.301C17.909 26.9399 17.3748 26.3166 16.9299 25.5794C16.5202 24.8996 15.791 24.7045 15.0467 24.9808C14.3819 25.228 13.9528 25.8867 14.0747 26.6248C14.1391 27.0185 14.3077 27.4167 14.5143 27.761C15.8766 30.0362 17.9761 31.0003 20.442 31.0921L20.4428 31.0912ZM18.1279 20.1453C18.0944 18.8254 17.0429 17.7739 15.7742 17.7907C14.4031 17.8092 13.3286 18.9031 13.3684 20.2407C13.4081 21.5685 14.4728 22.5662 15.8166 22.5335C17.1188 22.5017 18.1606 21.4255 18.1271 20.1444L18.1279 20.1453ZM27.9305 20.1436C27.8872 18.7901 26.8287 17.7536 25.5238 17.7889C24.1589 17.826 23.1418 18.8943 23.1789 20.2522C23.2133 21.5288 24.3213 22.5697 25.6103 22.5379C26.9152 22.5061 27.972 21.4158 27.9314 20.1436H27.9305Z" fill="white"/>
<path d="M18.8086 50.0033C18.8086 47.3856 18.8051 44.767 18.8104 42.1492C18.8122 41.3079 19.2271 40.6916 19.9387 40.4329C20.6945 40.1575 21.5826 40.3535 22.055 40.9821C22.2624 41.2575 22.3622 41.6319 22.4434 41.9771C22.5026 42.2278 22.4611 42.5042 22.4496 42.7681C22.4328 43.1478 22.5688 43.4365 22.8593 43.6934C23.9364 44.6469 23.9258 44.8985 22.8531 45.8732C22.4726 46.2193 22.0938 46.5698 21.7416 46.9441C21.1959 47.5242 21.1845 48.3091 21.7371 48.8838C22.1848 49.3482 22.6942 49.7534 23.1621 50.1984C23.7819 50.7882 23.773 51.121 23.1542 51.6975C22.7021 52.1187 22.2377 52.5274 21.806 52.9671C21.1686 53.616 21.1447 54.3841 21.7654 55.0463C22.1556 55.463 22.6085 55.8206 23.0376 56.2002C23.7783 56.8553 23.7845 57.219 23.0738 57.8944C22.5194 58.4206 21.9737 58.9565 21.4246 59.488C20.8128 60.0813 20.3925 60.0778 19.8134 59.473C19.1359 58.7655 18.7989 57.918 18.8025 56.9303C18.8051 54.6216 18.8025 52.312 18.8025 50.0033H18.8069H18.8086Z" fill="white"/>
<path d="M25.1106 7.99078C25.1424 7.80715 25.1645 7.6341 25.2042 7.46636C25.4532 6.40779 26.344 5.76241 27.414 5.86041C28.3834 5.94958 29.1895 6.88719 29.2027 7.99696C29.2151 9.01139 29.1992 10.0267 29.1612 11.0402C29.148 11.3987 29.2522 11.645 29.517 11.8799C31.5883 13.7101 33.6471 15.5535 35.7166 17.3855C36.1483 17.7677 36.49 18.1906 36.5562 18.7831C36.6621 19.7339 36.2834 20.4817 35.4773 20.9205C34.6518 21.3708 33.7946 21.3107 33.06 20.6645C31.3384 19.1494 29.6398 17.6079 27.934 16.0744C25.8566 14.2071 23.7828 12.3354 21.7045 10.469C20.8887 9.73623 20.2265 9.738 19.4178 10.4778C17.042 12.6515 14.6706 14.8295 12.2948 17.0032C11.0146 18.1739 9.7415 19.3534 8.44103 20.5011C7.55727 21.2807 6.67086 21.4008 5.80564 20.9364C4.59169 20.2866 4.31976 18.6568 5.29976 17.6742C5.94249 17.0297 6.65232 16.4531 7.32949 15.844C10.6844 12.8245 14.0358 9.80068 17.3934 6.78389C19.0108 5.33068 21.1518 5.02432 22.7922 6.09525C23.6088 6.62851 24.3151 7.33039 25.1115 7.98902L25.1106 7.99078Z" fill="#1E3738"/>
<path d="M20.4428 31.0912C17.977 30.9994 15.8775 30.0353 14.5152 27.7601C14.3086 27.4149 14.14 27.0168 14.0755 26.6239C13.9537 25.8867 14.3828 25.2272 15.0476 24.98C15.7919 24.7036 16.5202 24.8987 16.9308 25.5785C17.3757 26.3158 17.909 26.9399 18.6992 27.3002C20.1277 27.9535 22.4664 27.9826 23.917 26.2169C24.0556 26.0482 24.1474 25.8434 24.2666 25.6589C24.738 24.9288 25.5538 24.6621 26.2919 24.9932C27.0123 25.3172 27.3955 26.1515 27.1121 26.955C26.6203 28.3472 25.6174 29.3246 24.3796 30.0653C23.2071 30.7672 21.9146 31.07 20.4437 31.0903L20.4428 31.0912Z" fill="#1E3738"/>
<path d="M18.1279 20.1453C18.1606 21.4264 17.1188 22.5026 15.8175 22.5344C14.4737 22.5671 13.409 21.5694 13.3692 20.2416C13.3286 18.904 14.4031 17.8101 15.7751 17.7916C17.0438 17.7748 18.0944 18.8263 18.1288 20.1462L18.1279 20.1453Z" fill="#1E3738"/>
<path d="M27.9305 20.1436C27.9711 21.4158 26.9143 22.5053 25.6094 22.5379C24.3204 22.5697 23.2133 21.5279 23.178 20.2522C23.1409 18.8943 24.1589 17.826 25.5229 17.7889C26.8278 17.7536 27.8864 18.7901 27.9296 20.1436L27.9305 20.1436Z" fill="#1E3738"/>
</svg>
